PathFileType	4	(X/Y/Z)	1H_rest_fast_right.trc
DataRate	CameraRate	NumFrames	NumMarkers	Units	OrigDataRate	OrigDataStartFrame	OrigNumFrames
250.00	250.00	8	18	mm	250.00	18174	29078
Frame#	Time	c7	r_should	l_should	clavicle	r_upa	r_elb_l	r_elb_m	r_low	r_wri_l	r_wri_m	r_met	l_upa	l_elb_l	l_elb_m	l_low	l_wri_l	l_wri_m	l_met
	X1	Y1	Z1	X2	Y2	Z2	X3	Y3	Z3	X4	Y4	Z4	X5	Y5	Z5	X6	Y6	Z6	X7	Y7	Z7	X8	Y8	Z8	X9	Y9	Z9	X10	Y10	Z10	X11	Y11	Z11	X12	Y12	Z12	X13	Y13	Z13	X14	Y14	Z14	X15	Y15	Z15	X16	Y16	Z16	X17	Y17	Z17	X18	Y18	Z18
18174	72.69200	640.11768	1419.01709	271.29828	718.98779	1354.25317	409.33084	675.89429	1382.26770	92.58732	768.79889	1283.39563	236.40221	733.92834	1142.09534	463.98096	731.89874	1052.11926	482.98862	691.72656	1017.87952	406.65665	788.52521	873.27716	487.15945	819.50140	813.20929	484.63046	782.07599	798.86072	420.08493	819.28064	722.22260	496.71518	679.56635	1188.91003	19.69053	696.65991	1079.44104	16.65254	634.83618	1045.66907	74.20055	733.07196	912.97607	23.83509	759.76233	841.73004	57.16127	692.90033	819.31555	37.32444	787.23383	754.04480	34.14768
18175	72.69600	640.14233	1419.02197	271.27103	719.02655	1354.25879	409.30148	675.90131	1382.25452	92.56873	768.82770	1283.41101	236.37236	734.03607	1142.08289	463.93060	732.05292	1052.10303	482.90692	691.83710	1017.84766	406.57825	788.70795	873.24414	486.98483	819.68665	813.17688	484.42285	782.24115	798.85620	419.91043	819.28625	722.20264	496.59604	679.56641	1188.90051	19.66922	696.66064	1079.43652	16.62642	634.79651	1045.62158	74.14751	733.04065	912.95850	23.79021	759.69159	841.67444	57.06822	692.81671	819.25659	37.22657	787.18140	754.02325	34.07361
18176	72.70000	640.16040	1419.01855	271.24442	719.05847	1354.25806	409.27625	675.90466	1382.23645	92.55379	768.85797	1283.42126	236.34898	734.15765	1142.06409	463.84985	732.22644	1052.07397	482.81635	691.96570	1017.81061	406.49777	788.89844	873.19574	486.81079	819.86810	813.12787	484.22339	782.43341	798.83966	419.72540	819.28400	722.17883	496.49985	679.56079	1188.88269	19.64869	696.65710	1079.42480	16.60024	634.76251	1045.56897	74.10574	733.00330	912.93451	23.74199	759.62659	841.62726	56.99201	692.73767	819.18335	37.15504	787.11078	753.99182	33.99812
18177	72.70400	640.17615	1419.00757	271.22449	719.08179	1354.25659	409.26111	675.90344	1382.21301	92.53709	768.88171	1283.43103	236.32568	734.28632	1142.03613	463.76434	732.43665	1052.04004	482.70850	692.11334	1017.77985	406.42166	789.09717	873.14777	486.64999	820.05658	813.08685	484.04117	782.65405	798.82135	419.53177	819.27106	722.18793	496.46835	679.55017	1188.86487	19.62838	696.64740	1079.40601	16.56980	634.74371	1045.53699	74.09344	732.95215	912.90204	23.69427	759.56415	841.58875	56.93754	692.66656	819.12115	37.12100	787.02655	753.94879	33.92355
18178	72.70800	640.18823	1418.99292	271.21106	719.10760	1354.24731	409.24728	675.89996	1382.19043	92.51869	768.89984	1283.43958	236.29849	734.43683	1142.02002	463.69077	732.68463	1052.00610	482.58939	692.29156	1017.76050	406.33853	789.30475	873.10626	486.50262	820.26007	813.06250	483.87866	782.89246	798.81561	419.33661	819.24994	722.24652	496.50275	679.54163	1188.84033	19.60798	696.63452	1079.38184	16.54817	634.74658	1045.53064	74.10094	732.89026	912.85840	23.64733	759.51910	841.56049	56.90297	692.61218	819.09644	37.12059	786.93158	753.89374	33.85447
18179	72.71200	640.20001	1418.98120	271.19543	719.13226	1354.23291	409.23007	675.90491	1382.17444	92.49683	768.92078	1283.43298	236.27417	734.61420	1142.00732	463.59622	732.96857	1051.97437	482.44565	692.50427	1017.75433	406.24576	789.52252	873.07324	486.35132	820.47913	813.04816	483.71823	783.14069	798.81158	419.14334	819.22217	722.33948	496.57983	679.54382	1188.81311	19.59437	696.62561	1079.35156	16.53078	634.76776	1045.54895	74.11386	732.83514	912.80750	23.60696	759.48480	841.53119	56.88313	692.56897	819.11041	37.11657	786.83319	753.83099	33.78531
18180	72.71600	640.21014	1418.97375	271.17572	719.16132	1354.22351	409.20981	675.91669	1382.16077	92.47139	768.93994	1283.41907	236.25352	734.80652	1141.99805	463.47293	733.26599	1051.94629	482.27484	692.72424	1017.74084	406.14377	789.74713	873.04193	486.17621	820.68390	813.02185	483.54941	783.38135	798.80548	418.94440	819.18958	722.42542	496.64230	679.55859	1188.79297	19.58053	696.62653	1079.32214	16.51616	634.78931	1045.57422	74.11221	732.78522	912.76331	23.57202	759.44348	841.50012	56.85337	692.51666	819.14392	37.08352	786.73248	753.76978	33.71913
18181	72.72000	640.22803	1418.97668	271.15073	719.20349	1354.22571	409.18542	675.92957	1382.15796	92.44199	768.95642	1283.41418	236.23332	735.00104	1141.99243	463.32709	733.54626	1051.91895	482.07681	692.92413	1017.72247	406.01050	789.95837	873.00751	485.98920	820.87030	812.98438	483.36780	783.60474	798.79517	418.73410	819.16669	722.46771	496.64944	679.58154	1188.79419	19.56631	696.63159	1079.30347	16.50259	634.78174	1045.59924	74.08878	732.73669	912.72974	23.53352	759.37933	841.45911	56.81133	692.44879	819.16937	37.00498	786.62708	753.71576	33.65412
